<?xml version="1.0" encoding="utf-8"?>
<!-- Generator: Adobe Illustrator 29.8.2, SVG Export Plug-In . SVG Version: 9.03 Build 0)  -->
<svg version="1.0" id="Capa_1" xmlns="http://www.w3.org/2000/svg" xmlns:xlink="http://www.w3.org/1999/xlink" x="0px" y="0px"
	 viewBox="0 0 283 205" style="enable-background:new 0 0 283 205;" xml:space="preserve">
<style type="text/css">
	.st0{fill:#FF8C42;}
	.st1{fill:#3B2F2F;}
</style>
<path class="st0" d="M86.5,18C72.6,30.9,10.4,93.8,8.2,97.2c-0.9,1.3-1.3,3.3-0.9,4.6c0.4,1.6,76.9,78.4,95.1,95.6
	c0.2,0.2,1.6,0,3-0.3c1.7-0.4,3.1-1.8,4-4c3-7.2,2.4-8-35.5-46.1c-19.1-19.3-36.2-37.2-37.9-39.9c-1.7-2.8-3.1-6.2-3.1-7.7
	c0-2.3,6.2-9,35.5-38.8c19.5-19.8,36.1-37.4,37-39c2.1-4.2,2-11.4-0.3-13.4C101.5,4.9,99.2,6.1,86.5,18z"/>
<path class="st1" d="M170.9,8.2c-1.4,0.9-4.9,3.9-7.9,6.6c-3,2.6-7.8,6.4-10.7,8.2c-3.5,2.3-6.1,5-7.9,8.2
	c-5,8.9-13.6,21.2-16.5,23.7c-1.6,1.3-6,3.4-9.7,4.6c-12.8,4.2-15.1,6-21.9,16.2c-6.5,9.7-14.6,16.7-26.4,22.7
	c-5.5,2.9-10.4,6-10.7,6.8c-0.9,2.3,4.4,6.3,8.3,6.3c4.3,0,20-7.9,25.7-13c2.6-2.3,6.8-7.2,9.4-10.9c2.6-3.6,5.6-7.7,6.7-9
	c2-2.2,10.9-7.1,13.2-7.1c0.7,0,0.7,2.6,0.2,8.2c-1.7,17.6-4.8,28.9-11.8,42.8c-4.2,8.3-4.7,10.8-3,14.1c2.5,4.6,6.5,0.3,14.8-15.9
	c8.4-16.3,13.4-32.2,15.2-48c1.1-10.2,2.5-13.6,10.1-24.8c3.6-5.4,7.3-9.1,15.8-15.7l11-8.6l2.3,1.9c2.2,1.7,2.3,2.5,2.2,13.2
	c-0.2,15.4-2.1,22.3-8.8,32.3c-8.8,13.1-9.1,13.8-8.8,24.1c0.2,8.5-0.1,10.1-4.1,21.8c-4,11.4-4.2,12.6-2.5,12.6
	c4.8,0,11.9-6.2,15.9-14c2.2-4,2.4-5.6,2.2-15.4c-0.3-12-0.2-12.2,6.7-21.2c2.6-3.4,6.2-9.7,8-14c3-7.2,6.8-15.4,7.6-16.3
	c0.1-0.2,1.9,0.7,3.9,1.9c3.8,2.4,7.7,7.5,11.8,15.7c3.4,6.6,5.8,8.4,17.5,12.9c8.1,3.2,10.6,4.6,15,9.2c7.6,7.8,10.6,12.6,9.3,14.9
	c-0.5,1.1-18.8,19.4-40.6,40.8c-22.2,21.8-39.8,39.8-40.1,41.1c-1.5,5.7,2.5,11.4,7.9,11.4c2.9,0,7.2-4,48-44.8l44.7-44.8v-4.8
	c0-4.9,0-4.9-10.7-15.7c-8.9-9.1-12.1-11.6-19.4-15.4c-11.4-5.9-14.1-8.2-19.1-16.9c-8.3-14.3-10-16.5-18.6-23.8
	c-4.8-4.1-12.6-11.2-17.4-15.6C178.3,5.9,175.7,4.9,170.9,8.2z"/>
</svg>
