<?xml version="1.0" encoding="UTF-8"?><svg id="OBJECTS" xmlns="http://www.w3.org/2000/svg" viewBox="0 0 435.99 237.85"><defs><style>.cls-1{fill:#2b243d;}</style></defs><path class="cls-1" d="M434.48,225.04c-7.09-6.28-8.47-15.5-13.21-22.98-11.64-18.38-25.8-34.9-37.26-53.43-12.81-20.72-27.62-40.2-40.81-60.7-15.27-23.73-32.92-45.85-47.09-70.35-3.35-5.8-8.85-10.51-13.9-15.12-3.03-2.76-5.44-4.45-8.89,1.89-5.68,10.44-13.84,19.55-19.03,30.49-1.03,2.17-5.56,3.55-2.42,6.49,3.66,3.42,5.09-.93,6.83-3.15,6.2-7.91,11.63-16.25,15.46-25.65,1-2.46,2.95-8.09,7.14-2.84,9.18,11.49,17.14,24.57,15.76,39.31-.96,10.25-1.27,20.98,2.14,29.24,6.65,16.1,7.76,32.19,9.52,49.02,1.5,14.31-.13,29.24,5.71,43.17-3.83-3.18-7.81-6.15-9.38-10.09-5.45-13.65-14.18-25.5-20.31-38.77-5.22-11.28-15.4-18.8-27.21-19.25-9.19-.35-12.51-3.94-14.44-11.04-1.78-6.57-7.66-12.08-5.58-19.59,1.35-4.86-.19-11.51,7.45-13.18.53-.12,4.08-4.56.68-6.93-2.64-1.84-4.4.69-5.95,2.52-1.11,1.31-2.4,2.62-3.02,4.17-7.15,17.74-18.73,33.14-26.56,50.46-1.39,3.08-6.79,4.71-4.68,8.25,4.26,7.13,3.83,16.24,8.25,22.44,6.89,9.65,8.55,21.16,15.45,32.15-10.37-4.37-11.29-14.25-16.96-20.35-10.07-10.82-18.5-23.4-25.62-35.88-6.91-12.12-14.66-23.95-21.27-36.35-10.29-19.33-22.14-38.03-35.54-55.58-2.49-3.26-4.63-5.99-9.1-5.46-4.75.57-5.97,3.95-6.59,8-.42,2.76-2.02,4.98-3.5,7.38-9.83,15.93-20.29,31.57-28.76,48.22-11.35,22.31-23.94,43.93-35.37,66.17-6.01,11.68-16.12,21.09-19.62,33.9-4.19,15.33-14.35,27.23-21.39,40.9-1.58,3.07-8.92,5.68-3.42,9.34,3.15,2.1,6.54,6.5,10.59,5.93,12.48-1.77,25.11.08,37.27-1.09,13.69-1.31,27.18.18,40.77-.74,19.47-1.31,39.1-.3,58.65-.54,29.79-.37,59.6-.52,89.37-1.63,18.22-.68,36.51,1.22,54.7-1.49,3.32-.5,5.85-3.38,9.79-2.04,13.08,4.42,27.01,2.04,40.14,2.04,22.06.01,44.2.88,66.28-.03,7.22-.3,14.52,1.18,21.7-1.22,3.47-1.16,6.71-2.93,3.22-6.03ZM137.02,138.45c-7.59,10.71-8.88,22.42-11.06,34.29-1.28,6.99-1.91,14.1-5.96,21.61-11.42-13.46-22.47-26.39-33.39-39.42-3.61-4.31-3.24-10.47.07-13.21,11.05-9.12,10.79-20.66,7.53-32.14-8.38-29.5,4.3-51.52,25.06-73.74,1.27,17.29,2.82,32.57,3.31,47.89.22,6.76,2.79,13.31.53,20.47-1.57,5,5.06,6.22,7.96,8.07,15.32,9.82,16.69,11.02,5.95,26.17Z"/><path class="cls-1" d="M81.09,107.67c-.13-.38-.32-.77-.36-1.04-.04-.25,0-.44.1-.55.23-.23.54-.39.81-.58.06-.04.06-.15.16-.15.73-.02.97-.51,1.21-1,.02-.05.01-.13.07-.14.88-.19,1.14-.98,1.84-1.35.34-.18.63-.4.88-.66.14-.15.11-.46.23-.63.16-.24.34-.44.58-.61.35-.25.94-.27.77-1.03-.03-.12.11-.1.17-.14.29-.2.65-.31.58-.86,0-.04.01-.05.03-.07.36-.47.76-.92,1.09-1.43.23-.35.38-.78.55-1.19.03-.07-.06-.27.07-.24.89.21.52-.81,1.04-.96.12-.03.07-.23.11-.35.19-.58.3-1.23.59-1.7.26-.42.76-.62,1.1-.96.13-.13.14-.37.19-.57.02-.07-.02-.19.02-.23,1.04-1.05,2.06-2.13,3.39-2.9.44-.25.98-.4,1.17-.89.37-.95,1.32-1.32,2.02-1.94.32-.28.84-.37.99-.82.29-.84,1.25-1.02,1.68-1.71.29-.46.85-.66.75-1.49,0-.04.02-.05.03-.07.41-.51.91-.95,1.22-1.56.56-1.12,1.75-1.61,2.6-2.45.45-.44.68-1.1,1.1-1.56.5-.55,1.12-.98,1.64-1.5.14-.14.1-.44.15-.65.03-.12.04-.26.14-.32.21-.12.52-.14.71-.27.93-.65,1.99-1.18,2.72-2.03.77-.89,1.89-1.45,2.55-2.45.55-.83,1.52-1.23,2.11-2.01.24-.32.73-.4.7-.99-.01-.26.32-.2.47-.3.69-.5,1.41-.97,2.05-1.51.35-.3.5-.8.85-1.1.65-.54,1.35-1.02,2.09-1.47.37-.23.88-.32,1.3-.5.32-.13.58-.31.91-.44.11-.04.16-.15.86.45.49.64.49.83.39.94-.28.33-.31.88-.09,1.67.08.29.01.45-.08.58-.28.42-.29,1.1-.77,1.33-.44.21-.57.73-.83,1.12-.4.59-.81,1.18-1.21,1.76-.22.32-.47.62-.66.98-.05.09,0,.28.14.53.31.59.25.82.09.98-.27.28-.48.62-.71.93,0,0,0,.03-.03.03-1.03-.05-.93,1.02-1.6,1.33-.66.3-1.19.74-1.7,1.19-.53.47-.97,1.02-1.45,1.53-.36.39-.71.8-1.08,1.19-.16.17-.34.31-.5.47-.64.66-1.25,1.35-1.92,1.99-.36.34-.87.54-1.19.92-.48.57-.85,1.24-1.27,1.86-.07.1-.16.19-.25.26-.37.28-.79.52-1.12.84-.24.24-.38.57-.58.86-.08.11-.16.22-.27.3-.8.58-1.6,1.15-2.4,1.73-.15.11-.36.15-.85-.08-.3-.15-.47-.13-.59-.08-.22.11-.37.28-.51.47-.47.66-.91,1.35-1.36,2.03-.04.06-.1.11-.07.24.21.88-.06,1.31-.3,1.77-.12.22-.05.62-.17.84-.17.33-.37.62-.65.84-.61.49-1.29.91-1.91,1.39-.15.12-.19.36-.27.54-.01.02.04.11,0,.09-.66-.23-.67.19-.9.39-.15.14-.27.32-.42.46-.3.28-.61.56-.93.82-.15.13-.38.17.06.78-.34-.09-.62-.17-.87-.22-.26-.05-.44-.02-.73-.12-.51-.16-.74-.05-.75.27-.02.46-.29.66-.85.59-.14-.02-.24,0-.32.05-.36.19-.7.4-1.28.37-.41-.02-.69.09-.82.37-.1.23-.5.19-.74.29-.27.11-.61.15-.76.38-.2.29-.23.75-.37,1.11-.15.41-.35.78-.51,1.18-.18.42-.33.86-.51,1.28-.07.17-.16.32-.28.44-.29.28-.69.45-.17,1.48.03.06.04.11-.01.08-.62-.27-.44.25-.72.3-.07.01-.14.03-.12.14.17.75-.43.76-.77,1.03-.84.65-1.71,1.28-2.67,1.82-.43.24-1.12.22-1.68.33-.2.04-.34.14-.58.15-.49,0-1.02-.03-1.55-.06-.29-.02-.63-.08-1-.14Z"/><path class="cls-1" d="M80.58,108.44c0,.13.03.28.02.4-.02.35-.03.71-.09,1.01-.04.16-.16.25-.27.34-.33.27-.62.58-1.02.78-.17.09-.53-.02-.88-.12-.09-.02-.5-.34-.68-.52-.28-.29-.64-.71-.7-.83-.09-.21-.07-.34.09-.3.6.13.67-.26.82-.57.2-.44.54-.72,1.24-.66.26.02.39-.09.62-.1.09,0,.29.1.44.16.14.14.28.27.41.41Z"/><path class="cls-1" d="M235.92,82.65c-.1-.41-.26-.83-.28-1.13-.02-.28.05-.49.18-.63.29-.29.65-.51.98-.76.07-.06.08-.18.19-.19.82-.11,1.15-.7,1.48-1.28.03-.05.03-.14.09-.16,1.01-.33,1.41-1.25,2.23-1.76.4-.24.76-.53,1.07-.86.18-.18.19-.53.34-.74.2-.29.44-.54.72-.76.43-.32,1.08-.42.99-1.25-.02-.13.13-.12.21-.18.35-.26.77-.43.75-1.04,0-.04.02-.06.04-.09.47-.58.96-1.13,1.4-1.75.3-.43.52-.93.77-1.41.04-.08-.03-.29.11-.28.97.12.69-.98,1.29-1.21.14-.05.11-.27.17-.41.28-.67.49-1.42.88-1.99.35-.51.92-.79,1.36-1.22.16-.16.2-.44.29-.67.03-.08,0-.21.05-.26,1.3-1.32,2.57-2.66,4.16-3.7.52-.34,1.15-.58,1.43-1.15.53-1.12,1.65-1.66,2.51-2.44.39-.36.98-.53,1.21-1.05.43-.99,1.53-1.3,2.1-2.14.38-.56,1.04-.85,1.03-1.78,0-.04.02-.06.04-.09.53-.63,1.14-1.18,1.56-1.91.77-1.33,2.17-2.04,3.22-3.09.56-.56.9-1.32,1.43-1.9.63-.68,1.37-1.24,2.02-1.9.17-.17.17-.51.26-.76.05-.14.08-.3.2-.37.25-.16.6-.22.83-.4,1.13-.85,2.38-1.58,3.31-2.63.98-1.1,2.3-1.87,3.17-3.08.71-1,1.86-1.58,2.62-2.53.31-.39.87-.55.91-1.2.02-.29.38-.26.56-.4.84-.65,1.7-1.27,2.49-1.96.43-.38.66-.97,1.09-1.35.79-.69,1.65-1.32,2.53-1.92.45-.3,1.02-.48,1.52-.73.37-.19.69-.42,1.07-.6.12-.06.2-.19.91.4.47.66.44.88.32,1.01-.35.4-.45,1.03-.31,1.89.05.31-.04.5-.16.66-.36.51-.46,1.28-1.03,1.6-.52.29-.73.9-1.08,1.36-.53.71-1.05,1.43-1.58,2.14-.29.39-.61.76-.87,1.18-.06.1-.03.31.09.58.28.63.17.9-.02,1.1-.34.35-.61.76-.92,1.14,0,.01-.01.03-.03.03-1.16.08-1.17,1.27-1.96,1.7-.78.43-1.43.98-2.06,1.55-.65.59-1.22,1.27-1.82,1.91-.45.49-.9.99-1.35,1.48-.2.21-.42.39-.62.6-.8.83-1.58,1.68-2.4,2.49-.45.43-1.05.72-1.45,1.19-.61.7-1.1,1.5-1.65,2.26-.09.12-.2.23-.32.33-.45.36-.95.69-1.36,1.09-.3.3-.5.69-.76,1.04-.1.14-.2.27-.34.37-.97.75-1.94,1.5-2.91,2.25-.18.14-.42.21-.94.01-.32-.13-.51-.09-.65-.01-.26.15-.45.36-.63.6-.6.81-1.19,1.63-1.78,2.46-.05.07-.12.14-.11.28.12.97-.24,1.49-.56,2.04-.16.27-.14.71-.3.97-.23.39-.49.75-.83,1.03-.75.63-1.56,1.19-2.32,1.81-.19.15-.25.43-.37.65-.02.03.03.12-.02.11-.71-.17-.78.3-1.05.55-.19.17-.34.39-.52.57-.37.36-.76.7-1.15,1.04-.18.16-.45.24-.03.87-.37-.06-.68-.11-.95-.14-.28-.03-.49.03-.81-.04-.55-.12-.82.03-.88.4-.08.52-.41.78-1.02.77-.15,0-.27.03-.36.09-.43.26-.83.54-1.48.58-.46.03-.79.19-.96.52-.15.28-.58.28-.87.42-.32.15-.7.25-.9.52-.26.36-.35.88-.55,1.3-.22.48-.49.92-.72,1.39-.25.5-.48,1.01-.73,1.5-.1.2-.22.38-.37.53-.36.35-.83.59-.38,1.69.03.06.03.12-.03.1-.66-.23-.52.33-.85.43-.08.02-.17.05-.15.17.1.83-.58.92-.99,1.25-1.03.84-2.08,1.66-3.22,2.39-.51.32-1.28.39-1.93.58-.23.07-.4.2-.66.24-.55.07-1.14.1-1.74.12-.33.01-.7-.02-1.1-.03Z"/><path class="cls-1" d="M235.25,83.58c0,.15,0,.31-.02.45-.07.39-.12.8-.23,1.15-.06.19-.21.3-.35.42-.4.35-.77.73-1.24,1.01-.2.12-.6.04-.98-.02-.1-.02-.52-.32-.69-.5-.28-.29-.63-.72-.68-.85-.07-.22-.04-.37.14-.35.65.07.79-.37.99-.75.28-.52.7-.88,1.47-.9.29,0,.45-.15.71-.19.1-.02.31.08.47.13.14.14.28.27.41.41Z"/><path class="cls-1" d="M252.63,110.54c-.1-.41-.26-.83-.28-1.13-.02-.28.05-.49.19-.63.29-.29.65-.51.98-.76.07-.06.08-.18.19-.19.82-.11,1.15-.69,1.48-1.28.03-.05.03-.14.09-.16,1.01-.33,1.41-1.25,2.23-1.76.4-.24.76-.53,1.07-.86.18-.18.19-.53.34-.74.2-.29.44-.54.72-.76.43-.32,1.08-.42.99-1.25-.01-.13.13-.12.21-.18.35-.26.77-.43.75-1.04,0-.04.02-.06.04-.09.47-.58.96-1.13,1.4-1.75.3-.43.52-.93.77-1.41.04-.08-.03-.29.1-.28.97.12.69-.98,1.29-1.21.14-.05.11-.27.17-.41.28-.67.49-1.42.88-1.99.35-.51.93-.79,1.36-1.22.16-.16.2-.44.29-.67.03-.08,0-.21.05-.26,1.3-1.32,2.57-2.66,4.16-3.7.52-.34,1.15-.57,1.43-1.15.53-1.12,1.65-1.66,2.51-2.44.39-.36.98-.53,1.21-1.05.43-.99,1.53-1.3,2.1-2.14.38-.56,1.04-.85,1.03-1.78,0-.04.02-.06.04-.09.53-.63,1.14-1.18,1.56-1.91.77-1.33,2.17-2.04,3.22-3.09.56-.56.9-1.32,1.43-1.9.63-.68,1.37-1.24,2.02-1.9.17-.17.17-.51.25-.76.05-.14.08-.3.2-.37.25-.16.6-.22.83-.4,1.13-.85,2.38-1.58,3.31-2.63.98-1.1,2.3-1.87,3.17-3.08.71-1,1.86-1.58,2.62-2.53.31-.39.87-.55.91-1.2.02-.29.38-.26.56-.4.84-.65,1.7-1.27,2.49-1.96.43-.38.66-.97,1.09-1.35.79-.69,1.65-1.32,2.53-1.92.45-.3,1.02-.48,1.52-.73.37-.19.69-.42,1.07-.6.12-.06.2-.19.91.4.47.66.44.88.32,1.01-.35.4-.45,1.03-.31,1.89.05.31-.04.5-.16.66-.36.51-.46,1.28-1.03,1.6-.52.29-.73.9-1.08,1.36-.53.71-1.05,1.43-1.58,2.14-.29.39-.61.76-.87,1.18-.06.1-.03.31.09.58.28.63.17.9-.02,1.1-.34.35-.61.76-.92,1.14,0,.01-.01.03-.03.03-1.15.08-1.17,1.27-1.96,1.7-.78.43-1.43.98-2.06,1.55-.65.59-1.22,1.27-1.82,1.91-.45.49-.9.99-1.35,1.47-.2.21-.42.39-.62.6-.8.83-1.58,1.68-2.4,2.49-.45.43-1.05.72-1.45,1.19-.61.7-1.1,1.5-1.65,2.26-.09.12-.2.23-.32.33-.45.36-.95.69-1.36,1.09-.3.3-.5.69-.76,1.04-.1.14-.2.27-.34.37-.97.75-1.94,1.5-2.91,2.25-.18.14-.42.21-.94.01-.32-.13-.51-.09-.65-.01-.26.15-.45.36-.63.6-.6.81-1.19,1.63-1.78,2.46-.05.07-.12.14-.1.28.12.97-.24,1.49-.56,2.04-.16.27-.14.71-.3.97-.23.39-.49.75-.83,1.03-.75.63-1.56,1.19-2.32,1.81-.19.15-.25.43-.37.65-.02.03.03.12-.02.11-.71-.17-.78.29-1.05.55-.19.17-.34.39-.52.57-.37.36-.76.7-1.15,1.04-.18.16-.45.24-.03.87-.37-.06-.68-.11-.95-.14-.28-.03-.49.03-.81-.04-.55-.12-.82.03-.88.4-.08.52-.41.78-1.02.77-.15,0-.27.03-.36.09-.43.26-.83.54-1.48.58-.46.03-.79.19-.96.52-.15.28-.58.28-.87.42-.32.15-.7.25-.9.52-.26.36-.35.88-.55,1.3-.22.48-.49.92-.72,1.39-.25.5-.48,1.01-.73,1.5-.1.2-.22.38-.37.53-.36.35-.83.59-.38,1.69.02.06.03.12-.03.1-.66-.23-.52.33-.85.43-.08.02-.17.05-.15.17.1.83-.58.92-.99,1.25-1.03.84-2.08,1.66-3.22,2.39-.51.32-1.28.39-1.93.58-.23.07-.4.2-.66.24-.55.07-1.14.1-1.74.12-.33.01-.7-.02-1.1-.03Z"/><path class="cls-1" d="M251.96,111.47c0,.15,0,.31-.02.45-.07.39-.12.8-.23,1.15-.06.19-.21.3-.34.42-.4.35-.77.73-1.24,1.01-.2.12-.6.04-.98-.02-.1-.02-.52-.32-.7-.5-.28-.29-.63-.72-.68-.85-.08-.22-.04-.37.14-.35.65.07.79-.37.99-.75.28-.52.7-.88,1.47-.9.29,0,.45-.15.71-.19.1-.02.31.08.47.13.14.14.28.27.41.41Z"/><path class="cls-1" d="M268.71,138.26c-.1-.41-.26-.83-.28-1.13-.02-.28.05-.49.19-.63.29-.29.65-.51.98-.76.07-.06.08-.18.19-.19.82-.11,1.15-.69,1.48-1.28.03-.05.03-.14.09-.16,1.01-.33,1.4-1.25,2.23-1.76.4-.24.76-.53,1.07-.86.18-.18.19-.53.34-.74.2-.29.44-.54.72-.76.43-.32,1.08-.42.99-1.25-.02-.13.13-.12.21-.18.35-.26.77-.43.75-1.04,0-.04.02-.06.04-.09.47-.58.96-1.13,1.4-1.75.3-.43.52-.93.77-1.41.04-.08-.03-.29.11-.28.97.12.69-.98,1.29-1.21.14-.05.11-.27.17-.41.28-.67.49-1.42.88-1.99.35-.51.92-.79,1.36-1.22.16-.16.2-.44.29-.67.03-.08,0-.21.05-.26,1.3-1.32,2.57-2.66,4.16-3.7.52-.34,1.15-.58,1.43-1.15.53-1.12,1.65-1.66,2.51-2.44.39-.36.98-.53,1.21-1.05.43-.99,1.53-1.3,2.1-2.14.38-.56,1.04-.85,1.03-1.78,0-.04.02-.06.04-.09.53-.63,1.14-1.18,1.56-1.91.77-1.33,2.17-2.04,3.22-3.09.56-.56.9-1.32,1.43-1.9.63-.68,1.37-1.24,2.02-1.9.17-.17.17-.51.26-.76.05-.14.08-.3.2-.37.25-.16.6-.22.83-.4,1.13-.85,2.38-1.58,3.31-2.63.98-1.1,2.3-1.87,3.17-3.08.71-1,1.86-1.58,2.62-2.53.31-.39.87-.55.91-1.2.02-.29.38-.26.56-.4.84-.65,1.7-1.27,2.49-1.96.43-.38.66-.97,1.09-1.35.79-.69,1.65-1.32,2.53-1.92.45-.3,1.02-.48,1.52-.73.37-.19.69-.42,1.07-.6.12-.06.2-.19.91.4.47.66.44.88.32,1.01-.35.4-.45,1.03-.31,1.89.05.31-.04.5-.16.66-.36.51-.46,1.28-1.03,1.6-.52.29-.73.9-1.08,1.36-.53.71-1.05,1.43-1.58,2.14-.29.39-.61.76-.87,1.18-.06.1-.03.31.09.58.28.63.17.9-.02,1.1-.34.35-.61.76-.92,1.14,0,.01-.01.03-.03.03-1.15.08-1.17,1.27-1.96,1.7-.78.43-1.43.98-2.06,1.55-.65.59-1.22,1.27-1.82,1.91-.45.49-.9.99-1.35,1.48-.2.21-.42.39-.62.59-.8.83-1.58,1.68-2.4,2.49-.45.43-1.05.72-1.45,1.19-.61.7-1.1,1.5-1.66,2.26-.09.12-.2.23-.32.33-.45.36-.95.69-1.36,1.09-.3.3-.5.69-.76,1.04-.1.14-.2.27-.34.37-.97.75-1.94,1.5-2.91,2.25-.18.14-.42.21-.94.01-.32-.13-.51-.09-.65-.01-.26.15-.45.36-.63.6-.6.81-1.19,1.63-1.78,2.46-.05.07-.12.14-.11.28.12.97-.24,1.49-.56,2.04-.16.27-.14.71-.3.97-.23.39-.49.75-.83,1.03-.75.63-1.56,1.19-2.32,1.81-.19.15-.25.43-.37.65-.01.03.03.12-.02.11-.71-.17-.78.29-1.05.55-.19.17-.34.39-.52.57-.37.36-.76.7-1.15,1.04-.18.16-.45.24-.03.87-.37-.06-.68-.11-.95-.14-.28-.03-.49.03-.81-.04-.55-.12-.82.03-.88.4-.08.52-.41.78-1.02.77-.15,0-.27.03-.36.09-.43.26-.83.54-1.48.58-.46.03-.79.19-.96.52-.15.28-.58.28-.87.42-.32.15-.7.25-.9.52-.26.36-.35.88-.55,1.3-.22.48-.49.92-.72,1.39-.25.5-.48,1.01-.73,1.5-.1.2-.22.38-.37.53-.36.35-.83.59-.38,1.69.02.06.03.12-.03.1-.66-.23-.52.33-.85.43-.08.02-.17.05-.15.17.1.83-.58.92-.99,1.25-1.03.84-2.08,1.66-3.22,2.39-.51.32-1.28.39-1.93.58-.23.07-.4.2-.66.24-.55.07-1.14.1-1.74.12-.33.01-.7-.02-1.1-.03Z"/><path class="cls-1" d="M268.04,139.19c0,.15,0,.31-.02.45-.07.39-.12.8-.23,1.15-.06.19-.21.3-.35.42-.4.35-.77.73-1.24,1.01-.2.12-.6.04-.98-.02-.1-.02-.52-.32-.69-.5-.28-.29-.63-.72-.68-.85-.07-.22-.04-.37.14-.35.65.07.79-.37.99-.75.28-.52.7-.88,1.47-.9.29,0,.45-.15.71-.19.1-.02.31.08.47.13.14.14.28.27.41.41Z"/><path class="cls-1" d="M277.88,169.62c-.1-.41-.26-.83-.28-1.13-.02-.28.05-.49.19-.63.29-.29.65-.51.98-.76.07-.06.08-.18.19-.19.82-.11,1.15-.7,1.48-1.28.03-.05.03-.14.09-.16,1.01-.33,1.41-1.25,2.23-1.76.4-.24.76-.53,1.07-.86.18-.18.19-.53.34-.74.2-.29.44-.54.72-.76.43-.32,1.08-.42.99-1.25-.01-.13.13-.12.21-.18.35-.26.77-.43.75-1.04,0-.04.02-.06.04-.09.47-.58.96-1.13,1.4-1.75.3-.43.52-.93.77-1.41.04-.08-.03-.29.1-.28.97.12.69-.98,1.29-1.21.14-.05.11-.27.17-.41.28-.67.49-1.42.88-1.99.35-.51.93-.79,1.36-1.22.16-.16.2-.44.29-.67.03-.08,0-.21.05-.26,1.3-1.32,2.57-2.66,4.16-3.7.52-.34,1.15-.57,1.43-1.15.53-1.12,1.65-1.66,2.51-2.44.39-.36.98-.53,1.21-1.05.43-.99,1.53-1.3,2.1-2.14.38-.56,1.04-.85,1.03-1.78,0-.04.02-.06.04-.09.53-.63,1.14-1.18,1.56-1.91.77-1.33,2.17-2.04,3.22-3.09.56-.56.9-1.32,1.43-1.9.63-.68,1.37-1.24,2.02-1.9.17-.17.17-.51.25-.76.05-.14.08-.3.2-.37.25-.16.6-.22.83-.4,1.13-.85,2.38-1.58,3.31-2.63.98-1.1,2.3-1.87,3.17-3.08.72-1,1.86-1.58,2.62-2.53.31-.39.87-.55.91-1.2.02-.29.38-.26.56-.4.84-.65,1.7-1.27,2.49-1.96.43-.38.66-.97,1.09-1.35.79-.69,1.65-1.32,2.53-1.92.45-.3,1.02-.48,1.52-.73.37-.19.69-.42,1.07-.61.12-.06.2-.19.91.4.47.66.44.88.32,1.01-.35.4-.45,1.03-.31,1.89.05.31-.04.5-.16.66-.36.51-.46,1.28-1.03,1.6-.52.29-.73.9-1.08,1.36-.53.71-1.05,1.43-1.58,2.14-.29.39-.61.76-.87,1.18-.06.1-.03.31.09.58.28.63.17.9-.02,1.1-.34.35-.61.76-.92,1.14,0,.01-.01.03-.03.03-1.15.08-1.17,1.27-1.96,1.7-.78.43-1.43.98-2.06,1.55-.65.59-1.22,1.27-1.82,1.91-.45.49-.9.99-1.35,1.47-.2.21-.42.39-.62.6-.8.83-1.58,1.68-2.4,2.49-.45.43-1.05.72-1.45,1.19-.61.7-1.1,1.5-1.65,2.26-.09.12-.2.23-.32.33-.45.36-.95.69-1.36,1.09-.3.3-.5.69-.76,1.04-.1.14-.2.27-.34.37-.97.75-1.94,1.5-2.91,2.25-.18.14-.42.21-.94.01-.32-.13-.51-.09-.65-.01-.26.15-.45.36-.63.6-.6.81-1.19,1.63-1.78,2.46-.05.07-.12.14-.1.28.12.97-.24,1.49-.56,2.04-.16.27-.14.71-.3.97-.23.39-.49.75-.83,1.03-.75.63-1.56,1.19-2.32,1.81-.19.15-.25.43-.37.65-.02.03.03.12-.02.11-.71-.17-.78.29-1.05.55-.19.17-.34.39-.52.57-.37.36-.76.7-1.15,1.04-.18.16-.45.24-.03.87-.38-.05-.68-.11-.95-.14-.28-.03-.49.03-.81-.04-.55-.12-.82.03-.88.4-.08.52-.41.78-1.02.77-.15,0-.27.03-.36.09-.43.26-.83.54-1.48.58-.46.03-.79.19-.96.52-.15.28-.58.28-.87.42-.32.16-.7.25-.9.52-.26.36-.35.88-.55,1.3-.22.48-.49.92-.72,1.39-.25.5-.48,1.01-.73,1.5-.1.2-.22.38-.37.53-.36.35-.83.59-.38,1.69.02.06.03.12-.03.1-.66-.23-.52.33-.85.43-.08.02-.17.05-.15.17.1.83-.58.92-.99,1.25-1.03.84-2.08,1.66-3.22,2.39-.51.32-1.28.39-1.93.58-.23.07-.4.2-.66.24-.55.07-1.14.1-1.74.12-.33.01-.7-.02-1.1-.03Z"/><path class="cls-1" d="M277.21,170.55c0,.15,0,.31-.02.45-.07.39-.12.8-.23,1.15-.06.19-.21.3-.34.42-.4.35-.77.73-1.24,1.01-.2.12-.6.04-.98-.02-.1-.02-.52-.32-.7-.5-.28-.29-.63-.72-.68-.85-.07-.22-.04-.37.14-.35.65.07.79-.37.99-.75.28-.52.7-.88,1.47-.9.29,0,.45-.15.71-.19.1-.02.31.08.47.13.14.14.28.27.41.41Z"/><path class="cls-1" d="M91.94,136.46c-.13-.38-.32-.77-.36-1.04-.04-.25,0-.44.1-.55.23-.23.54-.39.81-.58.06-.04.06-.15.16-.15.73-.02.97-.51,1.21-1,.02-.05.01-.13.07-.14.88-.19,1.14-.98,1.84-1.35.34-.18.63-.4.88-.66.14-.15.11-.46.23-.63.16-.24.34-.44.58-.61.35-.25.94-.27.77-1.03-.03-.12.11-.1.17-.14.29-.2.65-.31.58-.86,0-.04.01-.05.03-.07.36-.47.76-.92,1.09-1.43.23-.35.38-.78.55-1.19.03-.07-.06-.27.07-.24.89.21.52-.81,1.04-.96.12-.03.07-.23.11-.35.19-.58.3-1.23.59-1.7.26-.42.76-.62,1.1-.96.13-.13.14-.37.19-.57.02-.07-.02-.19.02-.23,1.04-1.05,2.06-2.13,3.39-2.9.44-.25.98-.4,1.17-.89.37-.95,1.32-1.32,2.02-1.94.32-.28.84-.37.99-.82.29-.84,1.25-1.02,1.68-1.71.29-.46.85-.66.75-1.49,0-.04.02-.05.03-.07.41-.51.91-.95,1.22-1.56.56-1.12,1.75-1.61,2.6-2.45.45-.44.68-1.1,1.1-1.56.5-.55,1.12-.98,1.64-1.5.14-.14.1-.44.15-.65.03-.12.04-.26.14-.32.21-.12.52-.14.71-.27.93-.65,1.99-1.18,2.72-2.03.77-.89,1.89-1.45,2.55-2.45.55-.83,1.52-1.23,2.11-2.01.24-.32.73-.4.7-.99-.01-.26.32-.2.47-.3.69-.5,1.41-.97,2.05-1.51.35-.3.5-.8.85-1.1.65-.54,1.35-1.02,2.09-1.47.37-.23.88-.32,1.3-.5.32-.13.58-.31.91-.44.11-.04.16-.15.86.45.49.64.49.83.39.94-.28.33-.31.88-.09,1.67.08.29.01.45-.08.58-.28.42-.29,1.1-.77,1.33-.44.21-.57.73-.83,1.12-.4.59-.81,1.18-1.21,1.76-.22.32-.47.62-.66.98-.05.09,0,.28.14.53.31.59.25.82.09.98-.27.28-.48.62-.71.93,0,0,0,.03-.03.03-1.04-.05-.93,1.02-1.6,1.33-.66.3-1.19.74-1.7,1.19-.53.47-.97,1.02-1.45,1.53-.36.39-.71.8-1.08,1.19-.16.17-.34.31-.5.47-.64.66-1.25,1.35-1.92,1.99-.36.34-.87.54-1.19.92-.48.57-.85,1.24-1.27,1.86-.07.1-.16.19-.25.26-.37.28-.79.52-1.12.84-.24.24-.38.57-.58.86-.08.11-.16.22-.27.3-.8.58-1.6,1.15-2.4,1.73-.15.11-.36.15-.85-.09-.3-.15-.47-.13-.59-.08-.22.11-.37.28-.51.47-.47.66-.91,1.35-1.36,2.03-.04.06-.1.11-.07.24.21.88-.06,1.31-.3,1.77-.12.22-.05.62-.17.84-.17.33-.37.62-.65.84-.61.49-1.29.91-1.91,1.39-.15.12-.19.36-.27.54-.01.02.04.11,0,.09-.66-.23-.67.19-.9.39-.15.14-.27.32-.42.46-.3.28-.61.56-.93.82-.15.13-.38.17.06.78-.34-.09-.62-.17-.87-.22-.26-.05-.44-.02-.73-.12-.51-.16-.74-.05-.75.27-.02.46-.29.66-.85.59-.14-.02-.24,0-.32.05-.36.19-.7.4-1.28.37-.41-.02-.69.09-.82.37-.1.23-.5.19-.74.29-.27.11-.61.15-.76.38-.2.29-.23.75-.37,1.11-.15.41-.35.78-.51,1.18-.18.42-.33.86-.51,1.28-.07.17-.16.32-.28.44-.29.28-.69.45-.17,1.48.03.06.04.11-.01.08-.62-.27-.44.25-.72.3-.07.01-.14.03-.12.14.17.75-.43.76-.77,1.03-.84.65-1.71,1.28-2.67,1.82-.43.24-1.12.22-1.68.33-.2.04-.34.14-.58.15-.49,0-1.02-.03-1.55-.06-.29-.02-.63-.08-1-.14Z"/><path class="cls-1" d="M91.43,137.23c0,.13.03.28.02.4-.02.35-.03.71-.09,1.01-.04.16-.16.25-.27.34-.33.27-.62.58-1.02.78-.17.09-.53-.02-.88-.12-.09-.02-.5-.34-.68-.52-.28-.29-.64-.71-.7-.83-.09-.21-.07-.34.09-.3.6.13.67-.26.82-.57.2-.44.54-.72,1.24-.66.26.02.39-.09.62-.1.09,0,.29.1.44.16.14.14.28.27.41.41Z"/><path class="cls-1" d="M97.49,178.55c-.13-.38-.32-.77-.36-1.04-.04-.25,0-.44.1-.55.23-.23.54-.39.81-.58.06-.04.06-.15.16-.15.73-.02.97-.51,1.21-1,.02-.05.01-.12.07-.14.88-.19,1.14-.98,1.84-1.35.34-.18.63-.4.88-.66.14-.15.11-.46.23-.63.16-.24.34-.44.58-.61.35-.25.94-.27.77-1.03-.03-.12.11-.1.17-.14.29-.2.65-.31.58-.86,0-.04.01-.05.03-.07.36-.47.76-.92,1.09-1.43.23-.35.38-.78.55-1.19.03-.07-.06-.27.07-.24.89.21.52-.81,1.04-.96.12-.03.07-.23.11-.35.19-.58.3-1.23.59-1.7.26-.42.76-.62,1.1-.96.13-.13.14-.37.19-.57.02-.07-.02-.19.02-.23,1.04-1.05,2.06-2.13,3.39-2.9.44-.25.98-.4,1.17-.89.37-.95,1.32-1.32,2.02-1.94.32-.28.84-.37.99-.82.29-.84,1.25-1.02,1.68-1.71.29-.46.85-.66.75-1.49,0-.04.02-.05.03-.07.41-.51.91-.95,1.22-1.56.56-1.12,1.75-1.61,2.6-2.45.45-.44.68-1.1,1.1-1.56.5-.55,1.12-.98,1.64-1.5.14-.14.1-.44.15-.65.03-.12.04-.26.14-.32.21-.11.52-.14.71-.27.93-.65,1.99-1.18,2.72-2.03.77-.89,1.89-1.45,2.55-2.45.55-.83,1.52-1.23,2.11-2.01.24-.32.73-.4.7-.99-.01-.26.32-.2.47-.3.69-.5,1.41-.97,2.05-1.51.35-.3.5-.8.85-1.1.65-.54,1.35-1.02,2.09-1.47.37-.23.88-.32,1.3-.5.32-.13.58-.31.91-.44.11-.04.16-.15.86.45.49.64.49.83.39.94-.28.33-.31.88-.09,1.67.08.29.01.45-.08.58-.28.42-.29,1.1-.77,1.33-.44.21-.57.73-.83,1.12-.4.59-.81,1.18-1.21,1.76-.22.32-.47.62-.66.98-.05.09,0,.28.14.53.31.59.25.82.09.98-.27.28-.48.62-.71.93,0,0,0,.03-.03.03-1.04-.05-.93,1.02-1.6,1.33-.66.3-1.19.74-1.7,1.19-.53.47-.97,1.02-1.45,1.53-.36.39-.71.8-1.08,1.19-.16.17-.34.31-.5.47-.64.66-1.25,1.35-1.92,1.99-.36.34-.87.54-1.19.92-.48.57-.85,1.24-1.27,1.86-.07.1-.16.19-.25.26-.37.28-.79.52-1.12.84-.24.24-.38.57-.58.86-.08.11-.16.22-.27.3-.8.58-1.6,1.15-2.4,1.73-.15.11-.36.15-.85-.09-.3-.15-.47-.13-.59-.08-.22.11-.37.28-.51.47-.47.66-.91,1.35-1.36,2.03-.04.06-.1.11-.07.24.21.88-.06,1.31-.3,1.77-.12.22-.05.62-.17.84-.17.33-.37.62-.65.84-.61.49-1.29.91-1.91,1.39-.15.12-.19.36-.27.54-.01.02.04.11,0,.09-.66-.23-.67.19-.9.39-.15.14-.27.32-.42.46-.3.28-.61.56-.93.82-.15.13-.38.17.06.78-.34-.09-.62-.17-.87-.22-.26-.05-.44-.02-.73-.12-.51-.16-.74-.05-.75.27-.02.46-.29.66-.85.59-.14-.02-.24,0-.32.05-.36.19-.7.4-1.28.37-.41-.02-.69.09-.82.37-.1.23-.5.19-.74.29-.27.11-.61.15-.76.38-.2.29-.23.75-.37,1.11-.15.41-.35.78-.51,1.18-.18.42-.33.86-.51,1.28-.07.17-.16.32-.28.44-.29.28-.69.45-.17,1.48.03.06.04.11-.01.08-.62-.27-.44.25-.72.3-.07.01-.14.03-.12.14.17.75-.43.76-.77,1.03-.84.65-1.71,1.29-2.67,1.82-.43.24-1.12.22-1.68.33-.2.04-.34.14-.58.15-.49,0-1.02-.03-1.55-.06-.29-.02-.63-.08-1-.14Z"/><path class="cls-1" d="M96.98,179.32c0,.13.03.28.02.4-.02.35-.03.71-.09,1.01-.04.16-.16.25-.27.34-.33.27-.62.58-1.02.78-.17.09-.53-.02-.88-.12-.09-.02-.5-.34-.68-.52-.28-.29-.64-.71-.7-.83-.09-.21-.07-.34.09-.3.6.13.67-.26.82-.57.2-.44.54-.72,1.24-.66.26.02.39-.09.62-.1.09,0,.29.1.44.16.14.14.28.27.41.41Z"/></svg>